<svg width="25" height="26" viewBox="0 0 25 26" fill="none" xmlns="http://www.w3.org/2000/svg">
<path d="M22.3214 17.983V14.2857C22.3214 13.8121 22.1333 13.3579 21.7984 13.023C21.4635 12.6881 21.0093 12.5 20.5357 12.5H13.3929V8.92857H15.1786C15.652 8.92809 16.106 8.7398 16.4407 8.40502C16.7755 8.07024 16.9638 7.61631 16.9643 7.14285V1.78571C16.9638 1.31226 16.7755 0.858329 16.4407 0.523545C16.106 0.188762 15.652 0.000472747 15.1786 0H9.82143C9.34797 0.000472747 8.89405 0.188762 8.55926 0.523545C8.22448 0.858329 8.03619 1.31226 8.03572 1.78571V7.14285C8.03619 7.61631 8.22448 8.07024 8.55926 8.40502C8.89405 8.7398 9.34797 8.92809 9.82143 8.92857H11.6071V12.5H4.46429C3.99069 12.5 3.53649 12.6881 3.2016 13.023C2.86672 13.3579 2.67858 13.8121 2.67858 14.2857V17.9839C1.83692 18.2012 1.10341 18.7181 0.615542 19.4375C0.127675 20.1569 -0.0810566 21.0296 0.028474 21.892C0.138005 22.7543 0.558277 23.5471 1.21051 24.1217C1.86275 24.6963 2.70217 25.0134 3.57143 25.0134C4.4407 25.0134 5.28012 24.6963 5.93236 24.1217C6.58459 23.5471 7.00486 22.7543 7.1144 21.892C7.22393 21.0296 7.0152 20.1569 6.52733 19.4375C6.03946 18.7181 5.30595 18.2012 4.46429 17.9839V14.2857H11.6071V17.9839C10.7655 18.2012 10.032 18.7181 9.54411 19.4375C9.05624 20.1569 8.84751 21.0296 8.95704 21.892C9.06657 22.7543 9.48684 23.5471 10.1391 24.1217C10.7913 24.6963 11.6307 25.0134 12.5 25.0134C13.3693 25.0134 14.2087 24.6963 14.8609 24.1217C15.5132 23.5471 15.9334 22.7543 16.043 21.892C16.1525 21.0296 15.9438 20.1569 15.4559 19.4375C14.968 18.7181 14.2345 18.2012 13.3929 17.9839V14.2857H20.5357V17.983C19.694 18.2003 18.9605 18.7172 18.4727 19.4366C17.9848 20.156 17.7761 21.0287 17.8856 21.8911C17.9951 22.7534 18.4154 23.5462 19.0676 24.1208C19.7199 24.6954 20.5593 25.0125 21.4286 25.0125C22.2978 25.0125 23.1372 24.6954 23.7895 24.1208C24.4417 23.5462 24.862 22.7534 24.9715 21.8911C25.0811 21.0287 24.8723 20.156 24.3845 19.4366C23.8966 18.7172 23.1631 18.2003 22.3214 17.983ZM9.82143 1.78571H15.1786L15.1795 7.14285H9.82143V1.78571ZM5.35715 21.4286C5.35715 21.7817 5.25242 22.127 5.0562 22.4206C4.85998 22.7143 4.58109 22.9432 4.2548 23.0783C3.9285 23.2135 3.56945 23.2489 3.22306 23.18C2.87666 23.1111 2.55848 22.941 2.30874 22.6912C2.05901 22.4415 1.88894 22.1233 1.82003 21.7769C1.75113 21.4305 1.78649 21.0715 1.92165 20.7452C2.05681 20.4189 2.28569 20.14 2.57935 19.9438C2.873 19.7476 3.21825 19.6428 3.57143 19.6428C4.04489 19.6433 4.49882 19.8316 4.8336 20.1664C5.16839 20.5012 5.35668 20.9551 5.35715 21.4286ZM14.2857 21.4286C14.2857 21.7817 14.181 22.127 13.9848 22.4206C13.7885 22.7143 13.5097 22.9432 13.1834 23.0783C12.8571 23.2135 12.498 23.2489 12.1516 23.18C11.8052 23.1111 11.487 22.941 11.2373 22.6912C10.9876 22.4415 10.8175 22.1233 10.7486 21.7769C10.6797 21.4305 10.7151 21.0715 10.8502 20.7452C10.9854 20.4189 11.2143 20.14 11.5079 19.9438C11.8016 19.7476 12.1468 19.6428 12.5 19.6428C12.9734 19.6436 13.4272 19.8319 13.7619 20.1666C14.0966 20.5014 14.285 20.9552 14.2857 21.4286ZM21.4286 23.2143C21.0754 23.2143 20.7301 23.1095 20.4365 22.9133C20.1428 22.7171 19.9139 22.4382 19.7788 22.1119C19.6436 21.7856 19.6083 21.4266 19.6772 21.0802C19.7461 20.7338 19.9161 20.4156 20.1659 20.1659C20.4156 19.9161 20.7338 19.7461 21.0802 19.6772C21.4266 19.6083 21.7856 19.6436 22.1119 19.7788C22.4382 19.9139 22.7171 20.1428 22.9133 20.4365C23.1095 20.7301 23.2143 21.0754 23.2143 21.4286C23.2138 21.902 23.0255 22.3559 22.6907 22.6907C22.3559 23.0255 21.902 23.2138 21.4286 23.2143Z" fill="#ABABAB"/>
</svg>
