<svg width="14" height="15" viewBox="0 0 14 15" fill="none" xmlns="http://www.w3.org/2000/svg">
<path d="M1.45745 7.01844C1.06394 7.42319 0.843359 7.97155 0.843359 8.54277V12.6571C0.843359 13.2283 1.06394 13.7766 1.45745 14.1814C1.85104 14.5862 2.38548 14.8142 2.94336 14.8142H10.9434C11.5012 14.8142 12.0357 14.5862 12.4293 14.1814C12.8228 13.7766 13.0434 13.2283 13.0434 12.6571V8.54277C13.0434 7.97155 12.8228 7.42319 12.4293 7.01844C12.0357 6.6136 11.5012 6.38563 10.9434 6.38563H2.94336C2.38548 6.38563 1.85104 6.6136 1.45745 7.01844ZM2.54365 8.1276C2.65016 8.01806 2.79399 7.95705 2.94336 7.95705H10.9434C11.0927 7.95705 11.2366 8.01806 11.3431 8.1276C11.4497 8.23724 11.51 8.38653 11.51 8.54277V12.6571C11.51 12.8133 11.4497 12.9626 11.3431 13.0722C11.2366 13.1818 11.0927 13.2428 10.9434 13.2428H2.94336C2.79399 13.2428 2.65016 13.1818 2.54365 13.0722C2.43706 12.9626 2.37669 12.8133 2.37669 12.6571V8.54277C2.37669 8.38653 2.43706 8.23724 2.54365 8.1276Z" fill="#616161" stroke="#616161" stroke-width="0.2"/>
<path d="M4.51481 1.9345C3.87126 2.59644 3.5102 3.49363 3.5102 4.42857V7.17143C3.5102 7.37892 3.59031 7.57846 3.73376 7.72601C3.87731 7.87366 4.07261 7.95714 4.27687 7.95714C4.48112 7.95714 4.67642 7.87366 4.81997 7.72601C4.96342 7.57846 5.04353 7.37892 5.04353 7.17143V4.42857C5.04353 3.90861 5.24437 3.41049 5.60102 3.04366C5.95757 2.67692 6.44054 2.47143 6.94353 2.47143C7.44652 2.47143 7.9295 2.67692 8.28605 3.04366C8.64269 3.41049 8.84353 3.90861 8.84353 4.42857V7.17143C8.84353 7.37892 8.92364 7.57846 9.06709 7.72601C9.21064 7.87366 9.40594 7.95714 9.6102 7.95714C9.81446 7.95714 10.0098 7.87366 10.1533 7.72601C10.2968 7.57846 10.3769 7.37892 10.3769 7.17143V4.42857C10.3769 3.49363 10.0158 2.59644 9.37225 1.9345C8.72861 1.27246 7.85503 0.9 6.94353 0.9C6.03203 0.9 5.15845 1.27246 4.51481 1.9345ZM7.48664 9.3597C7.34309 9.21206 7.14779 9.12857 6.94353 9.12857C6.73928 9.12857 6.54398 9.21206 6.40043 9.3597C6.25697 9.50726 6.17687 9.7068 6.17687 9.91429V11.2857C6.17687 11.4932 6.25697 11.6927 6.40043 11.8403C6.54398 11.9879 6.73928 12.0714 6.94353 12.0714C7.14779 12.0714 7.34309 11.9879 7.48664 11.8403C7.63009 11.6927 7.7102 11.4932 7.7102 11.2857V9.91429C7.7102 9.7068 7.63009 9.50726 7.48664 9.3597Z" fill="#616161" stroke="#616161" stroke-width="0.2"/>
</svg>
