<svg width="26" height="16" viewBox="0 0 26 16" fill="none" xmlns="http://www.w3.org/2000/svg">
<g clip-path="url(#clip0_1_656)">
<path d="M18.1592 6.25C19.8851 6.25 21.2842 4.85089 21.2842 3.125C21.2842 1.39911 19.8851 0 18.1592 0C16.4333 0 15.0342 1.39911 15.0342 3.125C15.0342 4.85089 16.4333 6.25 18.1592 6.25Z" fill="#A4A4A4"/>
<path d="M8.78418 6.25C10.5101 6.25 11.9092 4.85089 11.9092 3.125C11.9092 1.39911 10.5101 0 8.78418 0C7.05829 0 5.65918 1.39911 5.65918 3.125C5.65918 4.85089 7.05829 6.25 8.78418 6.25Z" fill="#A4A4A4"/>
<path d="M25.2946 7.81249L17.3258 9.37499H9.66959L1.70084 7.81249L3.94042 3.69791C4.51334 2.70833 5.555 2.08333 6.70084 2.08333H20.3467C21.4925 2.08333 22.5342 2.70833 23.1071 3.69791L25.2946 7.81249Z" fill="#A4A4A4"/>
<path d="M20.7633 15.625C23.6398 15.625 25.9717 13.2931 25.9717 10.4167C25.9717 7.54018 23.6398 5.20833 20.7633 5.20833C17.8869 5.20833 15.555 7.54018 15.555 10.4167C15.555 13.2931 17.8869 15.625 20.7633 15.625Z" fill="#A4A4A4"/>
<path d="M6.18001 15.625C9.0565 15.625 11.3883 13.2931 11.3883 10.4167C11.3883 7.54018 9.0565 5.20833 6.18001 5.20833C3.30353 5.20833 0.97168 7.54018 0.97168 10.4167C0.97168 13.2931 3.30353 15.625 6.18001 15.625Z" fill="#A4A4A4"/>
<path d="M13.4717 11.9792C14.9099 11.9792 16.0758 10.8132 16.0758 9.37499C16.0758 7.93675 14.9099 6.77083 13.4717 6.77083C12.0334 6.77083 10.8675 7.93675 10.8675 9.37499C10.8675 10.8132 12.0334 11.9792 13.4717 11.9792Z" fill="#A4A4A4"/>
<path d="M13.4717 10.4167C14.047 10.4167 14.5133 9.95029 14.5133 9.37499C14.5133 8.7997 14.047 8.33333 13.4717 8.33333C12.8964 8.33333 12.43 8.7997 12.43 9.37499C12.43 9.95029 12.8964 10.4167 13.4717 10.4167Z" fill="#F5F5F5"/>
<path d="M20.7633 14.0625C22.7769 14.0625 24.4092 12.4302 24.4092 10.4167C24.4092 8.40312 22.7769 6.77083 20.7633 6.77083C18.7498 6.77083 17.1175 8.40312 17.1175 10.4167C17.1175 12.4302 18.7498 14.0625 20.7633 14.0625Z" fill="#F5F5F5"/>
<path d="M6.18001 14.0625C8.19355 14.0625 9.82585 12.4302 9.82585 10.4167C9.82585 8.40312 8.19355 6.77083 6.18001 6.77083C4.16647 6.77083 2.53418 8.40312 2.53418 10.4167C2.53418 12.4302 4.16647 14.0625 6.18001 14.0625Z" fill="#F5F5F5"/>
</g>
<defs>
<clipPath id="clip0_1_656">
<rect width="25" height="15.625" fill="white" transform="translate(0.97168)"/>
</clipPath>
</defs>
</svg>
