<svg width="21" height="13" viewBox="0 0 21 13" fill="none" xmlns="http://www.w3.org/2000/svg">
<g clip-path="url(#clip0_1_497)">
<path d="M14.6934 5C16.0741 5 17.1934 3.88071 17.1934 2.5C17.1934 1.11929 16.0741 0 14.6934 0C13.3126 0 12.1934 1.11929 12.1934 2.5C12.1934 3.88071 13.3126 5 14.6934 5Z" fill="#1488CC"/>
<path d="M7.19336 5C8.57407 5 9.69336 3.88071 9.69336 2.5C9.69336 1.11929 8.57407 0 7.19336 0C5.81265 0 4.69336 1.11929 4.69336 2.5C4.69336 3.88071 5.81265 5 7.19336 5Z" fill="#1488CC"/>
<path d="M20.4017 6.25002L14.0267 7.50002H7.90167L1.52667 6.25002L3.31834 2.95835C3.77667 2.16669 4.61001 1.66669 5.52667 1.66669H16.4433C17.36 1.66669 18.1933 2.16669 18.6517 2.95835L20.4017 6.25002Z" fill="#1488CC"/>
<path d="M16.7767 12.5C19.0779 12.5 20.9434 10.6345 20.9434 8.33335C20.9434 6.03217 19.0779 4.16669 16.7767 4.16669C14.4755 4.16669 12.61 6.03217 12.61 8.33335C12.61 10.6345 14.4755 12.5 16.7767 12.5Z" fill="#1488CC"/>
<path d="M5.11003 12.5C7.41121 12.5 9.27669 10.6345 9.27669 8.33335C9.27669 6.03217 7.41121 4.16669 5.11003 4.16669C2.80884 4.16669 0.943359 6.03217 0.943359 8.33335C0.943359 10.6345 2.80884 12.5 5.11003 12.5Z" fill="#1488CC"/>
<path d="M10.9434 9.58335C12.094 9.58335 13.0267 8.65061 13.0267 7.50002C13.0267 6.34943 12.094 5.41669 10.9434 5.41669C9.79279 5.41669 8.86005 6.34943 8.86005 7.50002C8.86005 8.65061 9.79279 9.58335 10.9434 9.58335Z" fill="#1488CC"/>
<path d="M10.9434 8.33335C11.4036 8.33335 11.7767 7.96026 11.7767 7.50002C11.7767 7.03978 11.4036 6.66669 10.9434 6.66669C10.4831 6.66669 10.11 7.03978 10.11 7.50002C10.11 7.96026 10.4831 8.33335 10.9434 8.33335Z" fill="#C1E2F4"/>
<path d="M16.7767 11.25C18.3875 11.25 19.6934 9.94418 19.6934 8.33335C19.6934 6.72252 18.3875 5.41669 16.7767 5.41669C15.1659 5.41669 13.86 6.72252 13.86 8.33335C13.86 9.94418 15.1659 11.25 16.7767 11.25Z" fill="#C1E2F4"/>
<path d="M5.11003 11.25C6.72086 11.25 8.02669 9.94418 8.02669 8.33335C8.02669 6.72252 6.72086 5.41669 5.11003 5.41669C3.4992 5.41669 2.19336 6.72252 2.19336 8.33335C2.19336 9.94418 3.4992 11.25 5.11003 11.25Z" fill="#C1E2F4"/>
</g>
<defs>
<clipPath id="clip0_1_497">
<rect width="20" height="12.5" fill="white" transform="translate(0.943359)"/>
</clipPath>
</defs>
</svg>
