<svg width="25" height="25" viewBox="0 0 25 25" fill="none" xmlns="http://www.w3.org/2000/svg">
<path d="M10.4348 24.3478L0.652174 14.5652C-0.217391 13.6956 -0.217391 12.3369 0.652174 11.4673L10.4348 1.68474C11.3043 0.815171 12.663 0.815171 13.5326 1.68474L23.3152 11.4673C24.1848 12.3369 24.1848 13.6956 23.3152 14.5652L13.5326 24.3478C12.663 25.2173 11.25 25.2173 10.4348 24.3478Z" fill="#ABABAB"/>
<path d="M10.6522 17.7717C10.6522 17.6087 10.7065 17.4457 10.7609 17.2826C10.8152 17.1196 10.9239 17.0109 11.0326 16.9022C11.1413 16.7935 11.3043 16.6848 11.4674 16.6304C11.6304 16.5761 11.7935 16.5217 12.0109 16.5217C12.2282 16.5217 12.3913 16.5761 12.5543 16.6304C12.7174 16.6848 12.8804 16.7935 12.9891 16.9022C13.0978 17.0109 13.2065 17.1196 13.2609 17.2826C13.3152 17.4457 13.3696 17.6087 13.3696 17.7717C13.3696 17.9348 13.3152 18.0978 13.2609 18.2609C13.2065 18.4239 13.0978 18.5326 12.9891 18.6413C12.8804 18.75 12.7174 18.8587 12.5543 18.913C12.3913 18.9674 12.2282 19.0217 12.0109 19.0217C11.7935 19.0217 11.6304 18.9674 11.4674 18.913C11.3043 18.8587 11.1956 18.75 11.0326 18.6413C10.9239 18.5326 10.8152 18.4239 10.7609 18.2609C10.7065 18.0978 10.6522 17.9891 10.6522 17.7717ZM12.9348 15.2717H10.9782L10.7065 7.06522H13.2065L12.9348 15.2717Z" fill="white"/>
</svg>
