<svg width="20" height="20" viewBox="0 0 20 20" fill="none" xmlns="http://www.w3.org/2000/svg">
<path d="M7.99982 6.99963H3.99982" stroke="#A4A4A4" stroke-width="1.5" stroke-linecap="round" stroke-linejoin="round"/>
<path d="M13.4995 9.00037C12.8364 9.00037 12.2006 8.73697 11.7317 8.26813C11.2629 7.79929 10.9995 7.16341 10.9995 6.50037C10.9995 5.83732 11.2629 5.20144 11.7317 4.7326C12.2006 4.26376 12.8364 4.00037 13.4995 4.00037C14.1625 4.00037 14.7984 4.26376 15.2672 4.7326C15.7361 5.20144 15.9995 5.83732 15.9995 6.50037C15.9995 7.16341 15.7361 7.79929 15.2672 8.26813C14.7984 8.73697 14.1625 9.00037 13.4995 9.00037Z" stroke="#A4A4A4" stroke-width="1.5" stroke-linecap="round" stroke-linejoin="round"/>
<path d="M3.99982 4.00037H6.99982" stroke="#A4A4A4" stroke-width="1.5" stroke-linecap="round" stroke-linejoin="round"/>
<path d="M15.9998 15.9998L11.4998 12.9998L8.99982 14.9998L3.99982 10.9998" stroke="#A4A4A4" stroke-width="1.5" stroke-linecap="round" stroke-linejoin="round"/>
<path d="M1 18.4V1.6C1 1.44087 1.06321 1.28826 1.17574 1.17574C1.28826 1.06321 1.44087 1 1.6 1H18.4C18.5591 1 18.7117 1.06321 18.8243 1.17574C18.9368 1.28826 19 1.44087 19 1.6V18.4C19 18.5591 18.9368 18.7117 18.8243 18.8243C18.7117 18.9368 18.5591 19 18.4 19H1.6C1.44087 19 1.28826 18.9368 1.17574 18.8243C1.06321 18.7117 1 18.5591 1 18.4V18.4Z" stroke="#A4A4A4" stroke-width="1.5"/>
</svg>
