<svg width="25" height="20" viewBox="0 0 25 20" fill="none" xmlns="http://www.w3.org/2000/svg">
<path d="M5.625 7.5C6.625 7.5 7.5 6.625 7.5 5.625C7.5 4.625 6.625 3.75 5.625 3.75C4.625 3.75 3.75 4.625 3.75 5.625C3.75 6.625 4.625 7.5 5.625 7.5ZM8.75 2.5L17.5 11.25L11.25 17.5L2.5 8.75V2.5H8.75ZM8.75 0H2.5C1.125 0 0 1.125 0 2.5V8.75C0 9.5 0.25 10.125 0.75 10.5L9.5 19.25C9.875 19.75 10.5 20 11.25 20C12 20 12.625 19.75 13 19.25L19.25 13C19.75 12.5 20 11.875 20 11.25C20 10.5 19.75 9.875 19.25 9.5L10.5 0.75C10.125 0.25 9.5 0 8.75 0ZM14.375 2.125L15.625 0.875L24.25 9.5C24.75 10 25 10.625 25 11.25C25 11.875 24.75 12.625 24.25 13L17.5 19.75L16.25 18.5L23.375 11.25L14.375 2.125Z" fill="#ABABAB"/>
</svg>
