<svg width="15" height="16" viewBox="0 0 15 16" fill="none" xmlns="http://www.w3.org/2000/svg">
<path d="M4.73684 4.73684V7.89474L0 3.94737L4.73684 0V3.1579H8.68421C10.3593 3.1579 11.9657 3.82331 13.1501 5.00775C14.3346 6.19219 15 7.79863 15 9.47369C15 11.1487 14.3346 12.7552 13.1501 13.9396C11.9657 15.1241 10.3593 15.7895 8.68421 15.7895H1.57895V14.2105H8.68421C9.9405 14.2105 11.1453 13.7115 12.0337 12.8231C12.922 11.9348 13.4211 10.73 13.4211 9.47369C13.4211 8.2174 12.922 7.01256 12.0337 6.12423C11.1453 5.2359 9.9405 4.73684 8.68421 4.73684H4.73684Z" fill="black"/>
</svg>
