<svg width="17" height="16" viewBox="0 0 17 16" fill="none" xmlns="http://www.w3.org/2000/svg">
<path d="M8.06836 12.4375C8.06836 12.2014 8.15169 11.9931 8.31836 11.8125C8.48503 11.6319 8.69336 11.5417 8.94336 11.5417C9.19336 11.5417 9.40169 11.6319 9.56836 11.8125C9.73503 11.9931 9.81836 12.2014 9.81836 12.4375C9.81836 12.6736 9.73503 12.8819 9.56836 13.0625C9.40169 13.2431 9.19336 13.3333 8.94336 13.3333C8.69336 13.3333 8.48503 13.2431 8.31836 13.0625C8.15169 12.8819 8.06836 12.6736 8.06836 12.4375ZM8.06836 0H8.94336C11.1656 0 13.0545 0.777778 14.61 2.33333C16.1656 3.88889 16.9434 5.77778 16.9434 8C16.9434 10.2222 16.1656 12.1111 14.61 13.6667C13.0545 15.2222 11.1656 16 8.94336 16C6.72114 16 4.83225 15.2222 3.27669 13.6667C1.72114 12.1111 0.943359 10.2222 0.943359 8C0.943359 6.72222 1.22808 5.52083 1.79753 4.39583C2.36697 3.27083 3.15169 2.34722 4.15169 1.625V1.58333L10.1934 7.625L8.94336 8.875L4.11003 4.08333C3.19336 5.22222 2.73503 6.52778 2.73503 8C2.73503 9.72222 3.33919 11.1875 4.54753 12.3958C5.75586 13.6042 7.22114 14.2083 8.94336 14.2083C10.6656 14.2083 12.1309 13.6042 13.3392 12.3958C14.5475 11.1875 15.1517 9.72222 15.1517 8C15.1517 6.44444 14.6447 5.08333 13.6309 3.91667C12.617 2.75 11.3461 2.05556 9.81836 1.83333V3.54167H8.06836V0ZM14.2767 8C14.2767 8.25 14.1864 8.45833 14.0059 8.625C13.8253 8.79167 13.617 8.875 13.3809 8.875C13.1447 8.875 12.9364 8.79167 12.7559 8.625C12.5753 8.45833 12.485 8.25 12.485 8C12.485 7.75 12.5753 7.54167 12.7559 7.375C12.9364 7.20833 13.1447 7.125 13.3809 7.125C13.617 7.125 13.8253 7.20833 14.0059 7.375C14.1864 7.54167 14.2767 7.75 14.2767 8ZM3.61003 8C3.61003 7.75 3.7003 7.54167 3.88086 7.375C4.06141 7.20833 4.26975 7.125 4.50586 7.125C4.74197 7.125 4.9503 7.20833 5.13086 7.375C5.31141 7.54167 5.40169 7.75 5.40169 8C5.40169 8.25 5.31141 8.45833 5.13086 8.625C4.9503 8.79167 4.74197 8.875 4.50586 8.875C4.26975 8.875 4.06141 8.79167 3.88086 8.625C3.7003 8.45833 3.61003 8.25 3.61003 8Z" fill="#A1820A"/>
</svg>
